<mxfile host="app.diagrams.net" modified="2024-07-08T18:06:51.594Z" agent="Mozilla/5.0 (Windows NT 10.0; Win64; x64) AppleWebKit/537.36 (KHTML, like Gecko) Chrome/127.0.0.0 Safari/537.36 Edg/127.0.0.0" etag="EIFg-brrFUlQewaK-NBm" version="24.6.4" type="google" pages="2">
  <diagram name="Solução Atual" id="NxHAcegkJP9jtWPKfr5f">
    <mxGraphModel dx="1172" dy="707" grid="1" gridSize="10" guides="1" tooltips="1" connect="1" arrows="1" fold="1" page="1" pageScale="1" pageWidth="1169" pageHeight="1654" math="0" shadow="0">
      <root>
        <mxCell id="0" />
        <mxCell id="1" parent="0" />
        <mxCell id="hzRi37pJbvGwWMdwhIf7-2" value="" style="group;rounded=1;" parent="1" connectable="0" vertex="1">
          <mxGeometry x="144" y="190" width="70" height="82.5" as="geometry" />
        </mxCell>
        <mxCell id="hzRi37pJbvGwWMdwhIf7-3" value="&lt;font color=&quot;#ffffff&quot;&gt;&lt;b&gt;Usuário&lt;/b&gt;&lt;/font&gt;" style="rounded=1;whiteSpace=wrap;html=1;fillColor=#FF3333;strokeColor=#FF3333;movable=1;resizable=1;rotatable=1;deletable=1;editable=1;locked=0;connectable=1;" parent="hzRi37pJbvGwWMdwhIf7-2" vertex="1">
          <mxGeometry y="41.25" width="70" height="41.25" as="geometry" />
        </mxCell>
        <mxCell id="hzRi37pJbvGwWMdwhIf7-4" value="" style="ellipse;whiteSpace=wrap;html=1;aspect=fixed;fillColor=#FF3333;strokeColor=none;movable=1;resizable=1;rotatable=1;deletable=1;editable=1;locked=0;connectable=1;rounded=1;" parent="hzRi37pJbvGwWMdwhIf7-2" vertex="1">
          <mxGeometry x="11.666666666666666" width="42.92682926829268" height="42.92682926829268" as="geometry" />
        </mxCell>
        <mxCell id="hzRi37pJbvGwWMdwhIf7-9" style="edgeStyle=orthogonalEdgeStyle;rounded=1;orthogonalLoop=1;jettySize=auto;html=1;exitX=1;exitY=0.5;exitDx=0;exitDy=0;exitPerimeter=0;" parent="1" source="hzRi37pJbvGwWMdwhIf7-5" target="hzRi37pJbvGwWMdwhIf7-8" edge="1">
          <mxGeometry relative="1" as="geometry" />
        </mxCell>
        <mxCell id="hzRi37pJbvGwWMdwhIf7-5" value="&lt;font style=&quot;font-size: 12px;&quot;&gt;&lt;strong style=&quot;color: rgb(12, 167, 137);&quot;&gt;&amp;lt;&amp;lt;react&amp;gt;&amp;gt;&lt;br&gt;&lt;/strong&gt;&lt;strong style=&quot;color: rgb(12, 167, 137);&quot;&gt;frontend-login&lt;/strong&gt;&lt;/font&gt;&lt;strong style=&quot;color: rgb(12, 167, 137);&quot;&gt;&lt;br class=&quot;softbreak&quot;&gt;&lt;/strong&gt;" style="shape=display;whiteSpace=wrap;html=1;fontColor=#333333;fillColor=#f5f5f5;strokeColor=#f04747;rounded=1;" parent="1" vertex="1">
          <mxGeometry x="254" y="345" width="110" height="55" as="geometry" />
        </mxCell>
        <mxCell id="hzRi37pJbvGwWMdwhIf7-7" style="edgeStyle=orthogonalEdgeStyle;rounded=1;orthogonalLoop=1;jettySize=auto;html=1;exitX=0.5;exitY=1;exitDx=0;exitDy=0;entryX=0;entryY=0.5;entryDx=0;entryDy=0;entryPerimeter=0;" parent="1" source="hzRi37pJbvGwWMdwhIf7-3" target="hzRi37pJbvGwWMdwhIf7-5" edge="1">
          <mxGeometry relative="1" as="geometry" />
        </mxCell>
        <mxCell id="hzRi37pJbvGwWMdwhIf7-11" style="edgeStyle=orthogonalEdgeStyle;rounded=1;orthogonalLoop=1;jettySize=auto;html=1;exitX=0;exitY=0;exitDx=55;exitDy=55;entryX=0.5;entryY=0;entryDx=0;entryDy=0;exitPerimeter=0;" parent="1" source="rMSVMsTaSyEvIA6rM7K--2" target="hzRi37pJbvGwWMdwhIf7-10" edge="1">
          <mxGeometry relative="1" as="geometry" />
        </mxCell>
        <mxCell id="rMSVMsTaSyEvIA6rM7K--31" value="post&lt;br&gt;/v1/file/" style="edgeLabel;html=1;align=center;verticalAlign=middle;resizable=0;points=[];" vertex="1" connectable="0" parent="hzRi37pJbvGwWMdwhIf7-11">
          <mxGeometry x="-0.0199" y="2" relative="1" as="geometry">
            <mxPoint x="-2" y="1" as="offset" />
          </mxGeometry>
        </mxCell>
        <mxCell id="rMSVMsTaSyEvIA6rM7K--7" style="edgeStyle=orthogonalEdgeStyle;rounded=0;orthogonalLoop=1;jettySize=auto;html=1;" edge="1" parent="1" source="hzRi37pJbvGwWMdwhIf7-8" target="rMSVMsTaSyEvIA6rM7K--5">
          <mxGeometry relative="1" as="geometry" />
        </mxCell>
        <mxCell id="hzRi37pJbvGwWMdwhIf7-8" value="&lt;font color=&quot;#0ca789&quot;&gt;&lt;b&gt;Gateway&lt;/b&gt;&lt;/font&gt;" style="shape=offPageConnector;whiteSpace=wrap;html=1;fillColor=#eeeeee;strokeColor=#F04747;rounded=1;verticalAlign=middle;horizontal=1;size=0.2;" parent="1" vertex="1">
          <mxGeometry x="434" y="347.5" width="80" height="50" as="geometry" />
        </mxCell>
        <mxCell id="rMSVMsTaSyEvIA6rM7K--13" style="edgeStyle=orthogonalEdgeStyle;rounded=0;orthogonalLoop=1;jettySize=auto;html=1;" edge="1" parent="1" source="hzRi37pJbvGwWMdwhIf7-10" target="rMSVMsTaSyEvIA6rM7K--12">
          <mxGeometry relative="1" as="geometry" />
        </mxCell>
        <mxCell id="R_wIBTJxwGpp334mRAeT-3" style="edgeStyle=orthogonalEdgeStyle;rounded=0;orthogonalLoop=1;jettySize=auto;html=1;entryX=1;entryY=0.5;entryDx=0;entryDy=0;" edge="1" parent="1" source="hzRi37pJbvGwWMdwhIf7-10" target="R_wIBTJxwGpp334mRAeT-1">
          <mxGeometry relative="1" as="geometry" />
        </mxCell>
        <mxCell id="hzRi37pJbvGwWMdwhIf7-10" value="&lt;div&gt;&lt;font color=&quot;#0ca789&quot;&gt;&lt;span style=&quot;font-size: 10px;&quot;&gt;&lt;b&gt;API&amp;nbsp;&lt;br&gt;File&lt;/b&gt;&lt;/span&gt;&lt;/font&gt;&lt;/div&gt;" style="rounded=1;whiteSpace=wrap;html=1;fillColor=#f5f5f5;strokeColor=#F04747;fontColor=#333333;" parent="1" vertex="1">
          <mxGeometry x="584" y="472.77" width="110" height="50" as="geometry" />
        </mxCell>
        <mxCell id="rMSVMsTaSyEvIA6rM7K--17" style="edgeStyle=orthogonalEdgeStyle;rounded=0;orthogonalLoop=1;jettySize=auto;html=1;" edge="1" parent="1" source="EFmxTewsYsPUWk5X73LM-9" target="rMSVMsTaSyEvIA6rM7K--12">
          <mxGeometry relative="1" as="geometry" />
        </mxCell>
        <mxCell id="rMSVMsTaSyEvIA6rM7K--21" style="edgeStyle=orthogonalEdgeStyle;rounded=0;orthogonalLoop=1;jettySize=auto;html=1;" edge="1" parent="1" source="EFmxTewsYsPUWk5X73LM-9" target="rMSVMsTaSyEvIA6rM7K--20">
          <mxGeometry relative="1" as="geometry" />
        </mxCell>
        <mxCell id="rMSVMsTaSyEvIA6rM7K--22" style="edgeStyle=orthogonalEdgeStyle;rounded=0;orthogonalLoop=1;jettySize=auto;html=1;exitX=1;exitY=0.25;exitDx=0;exitDy=0;" edge="1" parent="1" source="EFmxTewsYsPUWk5X73LM-9" target="rMSVMsTaSyEvIA6rM7K--19">
          <mxGeometry relative="1" as="geometry" />
        </mxCell>
        <mxCell id="rMSVMsTaSyEvIA6rM7K--25" style="edgeStyle=orthogonalEdgeStyle;rounded=0;orthogonalLoop=1;jettySize=auto;html=1;entryX=0;entryY=0.5;entryDx=0;entryDy=0;exitX=1;exitY=0.75;exitDx=0;exitDy=0;" edge="1" parent="1" source="EFmxTewsYsPUWk5X73LM-9" target="rMSVMsTaSyEvIA6rM7K--18">
          <mxGeometry relative="1" as="geometry" />
        </mxCell>
        <mxCell id="EFmxTewsYsPUWk5X73LM-9" value="&lt;div style=&quot;font-size: 11px;&quot;&gt;&lt;font color=&quot;#0ca789&quot;&gt;&lt;b&gt;Message &lt;br&gt;Orchestrator Service&lt;/b&gt;&lt;/font&gt;&lt;/div&gt;" style="rounded=1;whiteSpace=wrap;html=1;fillColor=#f5f5f5;strokeColor=#F04747;fontColor=#333333;" parent="1" vertex="1">
          <mxGeometry x="764" y="513.44" width="90" height="246.56" as="geometry" />
        </mxCell>
        <mxCell id="wurVOFA_WyaZKBE81Gu7-4" value="&lt;font style=&quot;font-size: 18px;&quot;&gt;&lt;b&gt;Fluxo de upload de arquivos para geração de boleto e envio por e-mail&lt;/b&gt;&lt;/font&gt;&lt;div&gt;&lt;font style=&quot;font-size: 18px;&quot;&gt;&lt;b&gt;&lt;br&gt;&lt;/b&gt;&lt;/font&gt;&lt;/div&gt;&lt;div&gt;&lt;font style=&quot;font-size: 18px;&quot;&gt;&lt;b&gt;Solução baseada em fila&lt;/b&gt;&lt;/font&gt;&lt;/div&gt;&lt;div&gt;&lt;font style=&quot;font-size: 18px;&quot;&gt;&lt;i&gt;(já implementada parcialmente)&lt;/i&gt;&lt;/font&gt;&lt;/div&gt;" style="text;html=1;align=center;verticalAlign=middle;whiteSpace=wrap;rounded=0;" parent="1" vertex="1">
          <mxGeometry x="280" y="60" width="680" height="30" as="geometry" />
        </mxCell>
        <mxCell id="rMSVMsTaSyEvIA6rM7K--1" value="&lt;b&gt;&lt;font style=&quot;font-size: 12px;&quot; color=&quot;#67ab9f&quot;&gt;Register CSV File&lt;/font&gt;&lt;/b&gt;" style="whiteSpace=wrap;html=1;shape=mxgraph.basic.document;rounded=1;strokeColor=#F04747;align=center;verticalAlign=middle;fontFamily=Helvetica;fontSize=12;fontColor=#333333;fillColor=#f5f5f5;" vertex="1" parent="1">
          <mxGeometry x="596.5" y="219.99999999999997" width="85" height="65" as="geometry" />
        </mxCell>
        <mxCell id="rMSVMsTaSyEvIA6rM7K--3" value="" style="edgeStyle=orthogonalEdgeStyle;rounded=1;orthogonalLoop=1;jettySize=auto;html=1;exitX=1;exitY=0.5;exitDx=0;exitDy=0;entryX=0;entryY=0.5;entryDx=0;entryDy=0;" edge="1" parent="1" source="hzRi37pJbvGwWMdwhIf7-8" target="rMSVMsTaSyEvIA6rM7K--2">
          <mxGeometry relative="1" as="geometry">
            <mxPoint x="444" y="373" as="sourcePoint" />
            <mxPoint x="734" y="535" as="targetPoint" />
          </mxGeometry>
        </mxCell>
        <mxCell id="rMSVMsTaSyEvIA6rM7K--26" style="edgeStyle=orthogonalEdgeStyle;rounded=0;orthogonalLoop=1;jettySize=auto;html=1;exitX=1;exitY=0.5;exitDx=0;exitDy=0;exitPerimeter=0;entryX=1;entryY=0.5;entryDx=0;entryDy=0;" edge="1" parent="1" source="rMSVMsTaSyEvIA6rM7K--2" target="hzRi37pJbvGwWMdwhIf7-10">
          <mxGeometry relative="1" as="geometry">
            <mxPoint x="804" y="370" as="targetPoint" />
            <Array as="points">
              <mxPoint x="759" y="373" />
              <mxPoint x="759" y="498" />
            </Array>
          </mxGeometry>
        </mxCell>
        <mxCell id="rMSVMsTaSyEvIA6rM7K--2" value="&lt;font style=&quot;font-size: 12px;&quot;&gt;&lt;strong style=&quot;color: rgb(12, 167, 137);&quot;&gt;&amp;lt;&amp;lt;react&amp;gt;&amp;gt;&lt;br&gt;&lt;/strong&gt;&lt;strong style=&quot;color: rgb(12, 167, 137);&quot;&gt;frontend-form-upload&lt;/strong&gt;&lt;/font&gt;&lt;strong style=&quot;color: rgb(12, 167, 137);&quot;&gt;&lt;br class=&quot;softbreak&quot;&gt;&lt;/strong&gt;" style="shape=display;whiteSpace=wrap;html=1;fontColor=#333333;fillColor=#f5f5f5;strokeColor=#f04747;rounded=1;" vertex="1" parent="1">
          <mxGeometry x="584" y="345.27" width="110" height="55" as="geometry" />
        </mxCell>
        <mxCell id="rMSVMsTaSyEvIA6rM7K--4" style="edgeStyle=orthogonalEdgeStyle;rounded=0;orthogonalLoop=1;jettySize=auto;html=1;entryX=0.5;entryY=1;entryDx=0;entryDy=0;entryPerimeter=0;" edge="1" parent="1" source="rMSVMsTaSyEvIA6rM7K--2" target="rMSVMsTaSyEvIA6rM7K--1">
          <mxGeometry relative="1" as="geometry" />
        </mxCell>
        <mxCell id="rMSVMsTaSyEvIA6rM7K--5" value="&lt;div&gt;&lt;font color=&quot;#0ca789&quot;&gt;&lt;span style=&quot;font-size: 10px;&quot;&gt;&lt;b&gt;oAuth 2.0&lt;/b&gt;&lt;/span&gt;&lt;/font&gt;&lt;/div&gt;" style="rounded=1;whiteSpace=wrap;html=1;fillColor=#f5f5f5;strokeColor=#F04747;fontColor=#333333;" vertex="1" parent="1">
          <mxGeometry x="434" y="478.44000000000005" width="80" height="44.06" as="geometry" />
        </mxCell>
        <mxCell id="rMSVMsTaSyEvIA6rM7K--12" value="Register Queue" style="sketch=0;outlineConnect=0;fontColor=#232F3E;gradientColor=none;strokeColor=#232F3E;fillColor=#ffffff;dashed=0;verticalLabelPosition=bottom;verticalAlign=top;align=center;html=1;fontSize=12;fontStyle=0;aspect=fixed;shape=mxgraph.aws4.resourceIcon;resIcon=mxgraph.aws4.queue;" vertex="1" parent="1">
          <mxGeometry x="609" y="606.98" width="60" height="60" as="geometry" />
        </mxCell>
        <mxCell id="rMSVMsTaSyEvIA6rM7K--16" value="" style="verticalLabelPosition=bottom;html=1;verticalAlign=top;align=center;strokeColor=none;fillColor=#00BEF2;shape=mxgraph.azure.scheduler;pointerEvents=1;" vertex="1" parent="1">
          <mxGeometry x="823.06" y="500" width="25.94" height="32.42" as="geometry" />
        </mxCell>
        <mxCell id="rMSVMsTaSyEvIA6rM7K--18" value="&lt;div&gt;&lt;font size=&quot;1&quot; color=&quot;#0ca789&quot;&gt;&lt;b style=&quot;font-size: 12px;&quot;&gt;Email Service&lt;/b&gt;&lt;/font&gt;&lt;/div&gt;" style="rounded=1;whiteSpace=wrap;html=1;fillColor=#f5f5f5;strokeColor=#F04747;fontColor=#333333;" vertex="1" parent="1">
          <mxGeometry x="914" y="673.9200000000001" width="110" height="50" as="geometry" />
        </mxCell>
        <mxCell id="rMSVMsTaSyEvIA6rM7K--19" value="&lt;font size=&quot;1&quot; color=&quot;#0ca789&quot;&gt;&lt;b style=&quot;font-size: 12px;&quot;&gt;Bank Slip Service&lt;/b&gt;&lt;/font&gt;" style="rounded=1;whiteSpace=wrap;html=1;fillColor=#f5f5f5;strokeColor=#F04747;fontColor=#333333;" vertex="1" parent="1">
          <mxGeometry x="914" y="550.4200000000001" width="110" height="50" as="geometry" />
        </mxCell>
        <mxCell id="rMSVMsTaSyEvIA6rM7K--20" value="Dead Queue" style="sketch=0;outlineConnect=0;fontColor=#232F3E;gradientColor=none;strokeColor=#232F3E;fillColor=#ffffff;dashed=0;verticalLabelPosition=bottom;verticalAlign=top;align=center;html=1;fontSize=12;fontStyle=0;aspect=fixed;shape=mxgraph.aws4.resourceIcon;resIcon=mxgraph.aws4.queue;" vertex="1" parent="1">
          <mxGeometry x="779" y="840" width="60" height="60" as="geometry" />
        </mxCell>
        <mxCell id="rMSVMsTaSyEvIA6rM7K--30" value="get&lt;br&gt;/v1/file/history/" style="edgeLabel;html=1;align=center;verticalAlign=middle;resizable=0;points=[];" vertex="1" connectable="0" parent="1">
          <mxGeometry x="764" y="410" as="geometry">
            <mxPoint x="-6" y="-2" as="offset" />
          </mxGeometry>
        </mxCell>
        <mxCell id="rMSVMsTaSyEvIA6rM7K--33" value="&lt;div&gt;&lt;strong style=&quot;color: rgb(12, 167, 137);&quot;&gt;&lt;font style=&quot;font-size: 10px;&quot;&gt;&amp;lt;&amp;lt;mongo&amp;gt;&amp;gt;&lt;/font&gt;&lt;/strong&gt;&lt;strong style=&quot;color: rgb(12, 167, 137);&quot;&gt;&lt;font style=&quot;font-size: 10px;&quot;&gt;&lt;br&gt;&lt;/font&gt;&lt;/strong&gt;&lt;/div&gt;&lt;strong style=&quot;color: rgb(12, 167, 137);&quot;&gt;&lt;font style=&quot;font-size: 10px;&quot;&gt;audit-message-orchestrator&lt;/font&gt;&lt;/strong&gt;" style="shape=cylinder3;whiteSpace=wrap;html=1;boundedLbl=1;backgroundOutline=1;size=15;fillColor=#f5f5f5;fontColor=#333333;strokeColor=#F04747;rounded=1;" vertex="1" parent="1">
          <mxGeometry x="929" y="397.5" width="80" height="80" as="geometry" />
        </mxCell>
        <mxCell id="rMSVMsTaSyEvIA6rM7K--34" style="edgeStyle=orthogonalEdgeStyle;rounded=0;orthogonalLoop=1;jettySize=auto;html=1;entryX=0;entryY=0.5;entryDx=0;entryDy=0;entryPerimeter=0;exitX=0.5;exitY=0;exitDx=0;exitDy=0;" edge="1" parent="1" source="EFmxTewsYsPUWk5X73LM-9" target="rMSVMsTaSyEvIA6rM7K--33">
          <mxGeometry relative="1" as="geometry" />
        </mxCell>
        <mxCell id="rMSVMsTaSyEvIA6rM7K--35" value="to-do" style="shape=callout;whiteSpace=wrap;html=1;perimeter=calloutPerimeter;fillColor=#fff2cc;strokeColor=#d6b656;" vertex="1" parent="1">
          <mxGeometry x="970" y="360" width="54" height="50" as="geometry" />
        </mxCell>
        <mxCell id="rMSVMsTaSyEvIA6rM7K--36" value="to-do" style="shape=callout;whiteSpace=wrap;html=1;perimeter=calloutPerimeter;fillColor=#fff2cc;strokeColor=#d6b656;" vertex="1" parent="1">
          <mxGeometry x="822" y="777" width="54" height="50" as="geometry" />
        </mxCell>
        <mxCell id="rMSVMsTaSyEvIA6rM7K--37" value="to-do" style="shape=callout;whiteSpace=wrap;html=1;perimeter=calloutPerimeter;fillColor=#fff2cc;strokeColor=#d6b656;" vertex="1" parent="1">
          <mxGeometry x="480" y="412.5" width="54" height="50" as="geometry" />
        </mxCell>
        <mxCell id="-Vl0qpD6X_7qVodCqGcy-2" value="&lt;font style=&quot;font-size: 10px;&quot;&gt;mudar para lambda/functions&lt;/font&gt;" style="shape=callout;whiteSpace=wrap;html=1;perimeter=calloutPerimeter;fillColor=#fff2cc;strokeColor=#d6b656;" vertex="1" parent="1">
          <mxGeometry x="769" y="550.42" width="80" height="70" as="geometry" />
        </mxCell>
        <mxCell id="-Vl0qpD6X_7qVodCqGcy-5" value="&lt;font style=&quot;font-size: 8px;&quot;&gt;schedule&lt;/font&gt;" style="edgeLabel;html=1;align=center;verticalAlign=middle;resizable=0;points=[];" vertex="1" connectable="0" parent="1">
          <mxGeometry x="849" y="490.00333333333333" as="geometry">
            <mxPoint x="-12" y="4" as="offset" />
          </mxGeometry>
        </mxCell>
        <mxCell id="R_wIBTJxwGpp334mRAeT-1" value="File/Object Storage&lt;br&gt;(S3, GS, Blob)" style="shape=dataStorage;whiteSpace=wrap;html=1;fixedSize=1;rounded=1;strokeColor=#F04747;align=center;verticalAlign=middle;fontFamily=Helvetica;fontSize=12;fontColor=#333333;fillColor=#f5f5f5;" vertex="1" parent="1">
          <mxGeometry x="380" y="580.42" width="150" height="59.58" as="geometry" />
        </mxCell>
        <mxCell id="R_wIBTJxwGpp334mRAeT-2" value="to-do" style="shape=callout;whiteSpace=wrap;html=1;perimeter=calloutPerimeter;fillColor=#fff2cc;strokeColor=#d6b656;" vertex="1" parent="1">
          <mxGeometry x="446" y="550.42" width="54" height="50" as="geometry" />
        </mxCell>
      </root>
    </mxGraphModel>
  </diagram>
  <diagram name="Solução Alternativa" id="66zGzj9Uiuz4AUH0Nwr1">
    <mxGraphModel dx="1172" dy="707" grid="1" gridSize="10" guides="1" tooltips="1" connect="1" arrows="1" fold="1" page="1" pageScale="1" pageWidth="1169" pageHeight="1654" math="0" shadow="0">
      <root>
        <mxCell id="UOO4iFjohePMqXIz4VdY-0" />
        <mxCell id="UOO4iFjohePMqXIz4VdY-1" parent="UOO4iFjohePMqXIz4VdY-0" />
        <mxCell id="UOO4iFjohePMqXIz4VdY-2" value="" style="group;rounded=1;" connectable="0" vertex="1" parent="UOO4iFjohePMqXIz4VdY-1">
          <mxGeometry x="144" y="190" width="70" height="82.5" as="geometry" />
        </mxCell>
        <mxCell id="UOO4iFjohePMqXIz4VdY-3" value="&lt;font color=&quot;#ffffff&quot;&gt;&lt;b&gt;Usuário&lt;/b&gt;&lt;/font&gt;" style="rounded=1;whiteSpace=wrap;html=1;fillColor=#FF3333;strokeColor=#FF3333;movable=1;resizable=1;rotatable=1;deletable=1;editable=1;locked=0;connectable=1;" vertex="1" parent="UOO4iFjohePMqXIz4VdY-2">
          <mxGeometry y="41.25" width="70" height="41.25" as="geometry" />
        </mxCell>
        <mxCell id="UOO4iFjohePMqXIz4VdY-4" value="" style="ellipse;whiteSpace=wrap;html=1;aspect=fixed;fillColor=#FF3333;strokeColor=none;movable=1;resizable=1;rotatable=1;deletable=1;editable=1;locked=0;connectable=1;rounded=1;" vertex="1" parent="UOO4iFjohePMqXIz4VdY-2">
          <mxGeometry x="11.666666666666666" width="42.92682926829268" height="42.92682926829268" as="geometry" />
        </mxCell>
        <mxCell id="UOO4iFjohePMqXIz4VdY-5" style="edgeStyle=orthogonalEdgeStyle;rounded=1;orthogonalLoop=1;jettySize=auto;html=1;exitX=1;exitY=0.5;exitDx=0;exitDy=0;exitPerimeter=0;" edge="1" parent="UOO4iFjohePMqXIz4VdY-1" source="UOO4iFjohePMqXIz4VdY-6" target="UOO4iFjohePMqXIz4VdY-11">
          <mxGeometry relative="1" as="geometry" />
        </mxCell>
        <mxCell id="UOO4iFjohePMqXIz4VdY-6" value="&lt;font style=&quot;font-size: 12px;&quot;&gt;&lt;strong style=&quot;color: rgb(12, 167, 137);&quot;&gt;&amp;lt;&amp;lt;react&amp;gt;&amp;gt;&lt;br&gt;&lt;/strong&gt;&lt;strong style=&quot;color: rgb(12, 167, 137);&quot;&gt;frontend-login&lt;/strong&gt;&lt;/font&gt;&lt;strong style=&quot;color: rgb(12, 167, 137);&quot;&gt;&lt;br class=&quot;softbreak&quot;&gt;&lt;/strong&gt;" style="shape=display;whiteSpace=wrap;html=1;fontColor=#333333;fillColor=#f5f5f5;strokeColor=#f04747;rounded=1;" vertex="1" parent="UOO4iFjohePMqXIz4VdY-1">
          <mxGeometry x="254" y="345" width="110" height="55" as="geometry" />
        </mxCell>
        <mxCell id="UOO4iFjohePMqXIz4VdY-7" style="edgeStyle=orthogonalEdgeStyle;rounded=1;orthogonalLoop=1;jettySize=auto;html=1;exitX=0.5;exitY=1;exitDx=0;exitDy=0;entryX=0;entryY=0.5;entryDx=0;entryDy=0;entryPerimeter=0;" edge="1" parent="UOO4iFjohePMqXIz4VdY-1" source="UOO4iFjohePMqXIz4VdY-3" target="UOO4iFjohePMqXIz4VdY-6">
          <mxGeometry relative="1" as="geometry" />
        </mxCell>
        <mxCell id="UOO4iFjohePMqXIz4VdY-8" style="edgeStyle=orthogonalEdgeStyle;rounded=1;orthogonalLoop=1;jettySize=auto;html=1;exitX=0;exitY=0;exitDx=55;exitDy=55;entryX=0.5;entryY=0;entryDx=0;entryDy=0;exitPerimeter=0;" edge="1" parent="UOO4iFjohePMqXIz4VdY-1" source="UOO4iFjohePMqXIz4VdY-23" target="UOO4iFjohePMqXIz4VdY-13">
          <mxGeometry relative="1" as="geometry" />
        </mxCell>
        <mxCell id="UOO4iFjohePMqXIz4VdY-9" value="post&lt;br&gt;/v1/file/" style="edgeLabel;html=1;align=center;verticalAlign=middle;resizable=0;points=[];" vertex="1" connectable="0" parent="UOO4iFjohePMqXIz4VdY-8">
          <mxGeometry x="-0.0199" y="2" relative="1" as="geometry">
            <mxPoint x="-2" y="-61" as="offset" />
          </mxGeometry>
        </mxCell>
        <mxCell id="UOO4iFjohePMqXIz4VdY-10" style="edgeStyle=orthogonalEdgeStyle;rounded=0;orthogonalLoop=1;jettySize=auto;html=1;" edge="1" parent="UOO4iFjohePMqXIz4VdY-1" source="UOO4iFjohePMqXIz4VdY-11" target="UOO4iFjohePMqXIz4VdY-25">
          <mxGeometry relative="1" as="geometry" />
        </mxCell>
        <mxCell id="UOO4iFjohePMqXIz4VdY-11" value="&lt;font color=&quot;#0ca789&quot;&gt;&lt;b&gt;Gateway&lt;/b&gt;&lt;/font&gt;" style="shape=offPageConnector;whiteSpace=wrap;html=1;fillColor=#eeeeee;strokeColor=#F04747;rounded=1;verticalAlign=middle;horizontal=1;size=0.2;" vertex="1" parent="UOO4iFjohePMqXIz4VdY-1">
          <mxGeometry x="434" y="347.5" width="80" height="50" as="geometry" />
        </mxCell>
        <mxCell id="2xTcTseRFaJtYKzfTaBq-10" style="edgeStyle=orthogonalEdgeStyle;rounded=0;orthogonalLoop=1;jettySize=auto;html=1;exitX=0.5;exitY=1;exitDx=0;exitDy=0;" edge="1" parent="UOO4iFjohePMqXIz4VdY-1" source="UOO4iFjohePMqXIz4VdY-13" target="2xTcTseRFaJtYKzfTaBq-7">
          <mxGeometry relative="1" as="geometry" />
        </mxCell>
        <mxCell id="2xTcTseRFaJtYKzfTaBq-15" value="&lt;font style=&quot;font-size: 8px;&quot;&gt;Pub&lt;br&gt;Topic: New Message&lt;/font&gt;" style="edgeLabel;html=1;align=center;verticalAlign=middle;resizable=0;points=[];" vertex="1" connectable="0" parent="2xTcTseRFaJtYKzfTaBq-10">
          <mxGeometry x="0.0332" relative="1" as="geometry">
            <mxPoint as="offset" />
          </mxGeometry>
        </mxCell>
        <mxCell id="UOO4iFjohePMqXIz4VdY-13" value="&lt;div&gt;&lt;font color=&quot;#0ca789&quot;&gt;&lt;span style=&quot;font-size: 10px;&quot;&gt;&lt;b&gt;API&amp;nbsp;&lt;br&gt;File&lt;/b&gt;&lt;/span&gt;&lt;/font&gt;&lt;/div&gt;" style="rounded=1;whiteSpace=wrap;html=1;fillColor=#f5f5f5;strokeColor=#F04747;fontColor=#333333;" vertex="1" parent="UOO4iFjohePMqXIz4VdY-1">
          <mxGeometry x="584" y="600.42" width="110" height="50" as="geometry" />
        </mxCell>
        <mxCell id="UOO4iFjohePMqXIz4VdY-20" value="&lt;b&gt;&lt;font style=&quot;font-size: 12px;&quot; color=&quot;#67ab9f&quot;&gt;Register CSV File&lt;/font&gt;&lt;/b&gt;" style="whiteSpace=wrap;html=1;shape=mxgraph.basic.document;rounded=1;strokeColor=#F04747;align=center;verticalAlign=middle;fontFamily=Helvetica;fontSize=12;fontColor=#333333;fillColor=#f5f5f5;" vertex="1" parent="UOO4iFjohePMqXIz4VdY-1">
          <mxGeometry x="596.5" y="219.99999999999997" width="85" height="65" as="geometry" />
        </mxCell>
        <mxCell id="UOO4iFjohePMqXIz4VdY-21" value="" style="edgeStyle=orthogonalEdgeStyle;rounded=1;orthogonalLoop=1;jettySize=auto;html=1;exitX=1;exitY=0.5;exitDx=0;exitDy=0;entryX=0;entryY=0.5;entryDx=0;entryDy=0;" edge="1" parent="UOO4iFjohePMqXIz4VdY-1" source="UOO4iFjohePMqXIz4VdY-11" target="UOO4iFjohePMqXIz4VdY-23">
          <mxGeometry relative="1" as="geometry">
            <mxPoint x="444" y="373" as="sourcePoint" />
            <mxPoint x="734" y="535" as="targetPoint" />
          </mxGeometry>
        </mxCell>
        <mxCell id="UOO4iFjohePMqXIz4VdY-22" style="edgeStyle=orthogonalEdgeStyle;rounded=0;orthogonalLoop=1;jettySize=auto;html=1;exitX=1;exitY=0.5;exitDx=0;exitDy=0;exitPerimeter=0;" edge="1" parent="UOO4iFjohePMqXIz4VdY-1" source="UOO4iFjohePMqXIz4VdY-23" target="2xTcTseRFaJtYKzfTaBq-1">
          <mxGeometry relative="1" as="geometry">
            <mxPoint x="759" y="590" as="targetPoint" />
            <Array as="points">
              <mxPoint x="759" y="373" />
              <mxPoint x="759" y="511" />
            </Array>
          </mxGeometry>
        </mxCell>
        <mxCell id="UOO4iFjohePMqXIz4VdY-23" value="&lt;font style=&quot;font-size: 12px;&quot;&gt;&lt;strong style=&quot;color: rgb(12, 167, 137);&quot;&gt;&amp;lt;&amp;lt;react&amp;gt;&amp;gt;&lt;br&gt;&lt;/strong&gt;&lt;strong style=&quot;color: rgb(12, 167, 137);&quot;&gt;frontend-form-upload&lt;/strong&gt;&lt;/font&gt;&lt;strong style=&quot;color: rgb(12, 167, 137);&quot;&gt;&lt;br class=&quot;softbreak&quot;&gt;&lt;/strong&gt;" style="shape=display;whiteSpace=wrap;html=1;fontColor=#333333;fillColor=#f5f5f5;strokeColor=#f04747;rounded=1;" vertex="1" parent="UOO4iFjohePMqXIz4VdY-1">
          <mxGeometry x="584" y="345.27" width="110" height="55" as="geometry" />
        </mxCell>
        <mxCell id="UOO4iFjohePMqXIz4VdY-24" style="edgeStyle=orthogonalEdgeStyle;rounded=0;orthogonalLoop=1;jettySize=auto;html=1;entryX=0.5;entryY=1;entryDx=0;entryDy=0;entryPerimeter=0;" edge="1" parent="UOO4iFjohePMqXIz4VdY-1" source="UOO4iFjohePMqXIz4VdY-23" target="UOO4iFjohePMqXIz4VdY-20">
          <mxGeometry relative="1" as="geometry" />
        </mxCell>
        <mxCell id="UOO4iFjohePMqXIz4VdY-25" value="&lt;div&gt;&lt;font color=&quot;#0ca789&quot;&gt;&lt;span style=&quot;font-size: 10px;&quot;&gt;&lt;b&gt;oAuth 2.0&lt;/b&gt;&lt;/span&gt;&lt;/font&gt;&lt;/div&gt;" style="rounded=1;whiteSpace=wrap;html=1;fillColor=#f5f5f5;strokeColor=#F04747;fontColor=#333333;" vertex="1" parent="UOO4iFjohePMqXIz4VdY-1">
          <mxGeometry x="434" y="478.44000000000005" width="80" height="44.06" as="geometry" />
        </mxCell>
        <mxCell id="2xTcTseRFaJtYKzfTaBq-11" style="edgeStyle=orthogonalEdgeStyle;rounded=0;orthogonalLoop=1;jettySize=auto;html=1;entryX=0;entryY=0.5;entryDx=0;entryDy=0;exitX=0.5;exitY=0;exitDx=0;exitDy=0;dashed=1;dashPattern=8 8;endArrow=none;endFill=0;startArrow=block;startFill=1;" edge="1" parent="UOO4iFjohePMqXIz4VdY-1" source="UOO4iFjohePMqXIz4VdY-28" target="2xTcTseRFaJtYKzfTaBq-7">
          <mxGeometry relative="1" as="geometry" />
        </mxCell>
        <mxCell id="2xTcTseRFaJtYKzfTaBq-12" value="&lt;font style=&quot;font-size: 8px;&quot;&gt;Subscriber&lt;br&gt;&lt;i&gt;&lt;font style=&quot;&quot;&gt;Topic: Bank Slip Generated&lt;/font&gt;&lt;/i&gt;&lt;/font&gt;" style="edgeLabel;html=1;align=center;verticalAlign=middle;resizable=0;points=[];" vertex="1" connectable="0" parent="2xTcTseRFaJtYKzfTaBq-11">
          <mxGeometry x="-0.4757" y="1" relative="1" as="geometry">
            <mxPoint y="-1" as="offset" />
          </mxGeometry>
        </mxCell>
        <mxCell id="2xTcTseRFaJtYKzfTaBq-17" style="edgeStyle=orthogonalEdgeStyle;rounded=0;orthogonalLoop=1;jettySize=auto;html=1;entryX=0.25;entryY=1;entryDx=0;entryDy=0;dashed=1;dashPattern=8 8;" edge="1" parent="UOO4iFjohePMqXIz4VdY-1" source="UOO4iFjohePMqXIz4VdY-28" target="2xTcTseRFaJtYKzfTaBq-7">
          <mxGeometry relative="1" as="geometry" />
        </mxCell>
        <mxCell id="2xTcTseRFaJtYKzfTaBq-19" value="&lt;font style=&quot;font-size: 8px;&quot;&gt;Pub&lt;br&gt;Topic: Email Sent&lt;/font&gt;" style="edgeLabel;html=1;align=center;verticalAlign=middle;resizable=0;points=[];" vertex="1" connectable="0" parent="2xTcTseRFaJtYKzfTaBq-17">
          <mxGeometry x="0.2883" y="-3" relative="1" as="geometry">
            <mxPoint x="-45" y="58" as="offset" />
          </mxGeometry>
        </mxCell>
        <mxCell id="UOO4iFjohePMqXIz4VdY-28" value="&lt;div&gt;&lt;font size=&quot;1&quot; color=&quot;#0ca789&quot;&gt;&lt;b style=&quot;font-size: 12px;&quot;&gt;Email Service&lt;/b&gt;&lt;/font&gt;&lt;/div&gt;" style="rounded=1;whiteSpace=wrap;html=1;fillColor=#f5f5f5;strokeColor=#F04747;fontColor=#333333;" vertex="1" parent="UOO4iFjohePMqXIz4VdY-1">
          <mxGeometry x="430" y="827.0000000000001" width="110" height="50" as="geometry" />
        </mxCell>
        <mxCell id="2xTcTseRFaJtYKzfTaBq-13" style="edgeStyle=orthogonalEdgeStyle;rounded=0;orthogonalLoop=1;jettySize=auto;html=1;entryX=1;entryY=0.5;entryDx=0;entryDy=0;exitX=0.5;exitY=0;exitDx=0;exitDy=0;dashed=1;dashPattern=8 8;startArrow=block;startFill=1;endArrow=none;endFill=0;" edge="1" parent="UOO4iFjohePMqXIz4VdY-1" source="UOO4iFjohePMqXIz4VdY-29" target="2xTcTseRFaJtYKzfTaBq-7">
          <mxGeometry relative="1" as="geometry" />
        </mxCell>
        <mxCell id="2xTcTseRFaJtYKzfTaBq-18" style="edgeStyle=orthogonalEdgeStyle;rounded=0;orthogonalLoop=1;jettySize=auto;html=1;exitX=0;exitY=0.5;exitDx=0;exitDy=0;entryX=0.75;entryY=1;entryDx=0;entryDy=0;dashed=1;dashPattern=8 8;" edge="1" parent="UOO4iFjohePMqXIz4VdY-1" source="UOO4iFjohePMqXIz4VdY-29" target="2xTcTseRFaJtYKzfTaBq-7">
          <mxGeometry relative="1" as="geometry" />
        </mxCell>
        <mxCell id="2xTcTseRFaJtYKzfTaBq-20" value="&lt;font style=&quot;font-size: 8px;&quot;&gt;Pub&lt;br&gt;&lt;i&gt;Topic: Bank Slip Generated&lt;/i&gt;&lt;/font&gt;" style="edgeLabel;html=1;align=center;verticalAlign=middle;resizable=0;points=[];" vertex="1" connectable="0" parent="2xTcTseRFaJtYKzfTaBq-18">
          <mxGeometry x="0.2322" y="5" relative="1" as="geometry">
            <mxPoint x="48" y="50" as="offset" />
          </mxGeometry>
        </mxCell>
        <mxCell id="UOO4iFjohePMqXIz4VdY-29" value="&lt;font size=&quot;1&quot; color=&quot;#0ca789&quot;&gt;&lt;b style=&quot;font-size: 12px;&quot;&gt;Bank Slip Service&lt;/b&gt;&lt;/font&gt;" style="rounded=1;whiteSpace=wrap;html=1;fillColor=#f5f5f5;strokeColor=#F04747;fontColor=#333333;" vertex="1" parent="UOO4iFjohePMqXIz4VdY-1">
          <mxGeometry x="750" y="827" width="110" height="50" as="geometry" />
        </mxCell>
        <mxCell id="UOO4iFjohePMqXIz4VdY-31" value="get&lt;br&gt;/v1/file/history/" style="edgeLabel;html=1;align=center;verticalAlign=middle;resizable=0;points=[];" vertex="1" connectable="0" parent="UOO4iFjohePMqXIz4VdY-1">
          <mxGeometry x="764" y="430" as="geometry">
            <mxPoint x="-6" y="-2" as="offset" />
          </mxGeometry>
        </mxCell>
        <mxCell id="2xTcTseRFaJtYKzfTaBq-0" value="&lt;font style=&quot;font-size: 18px;&quot;&gt;&lt;b&gt;Fluxo de upload de arquivos para geração de boleto e envio por e-mail&lt;/b&gt;&lt;/font&gt;&lt;div&gt;&lt;i style=&quot;font-size: 18px; background-color: initial;&quot;&gt;Solução alternativa baseada em eventos (PUB/SUB)&lt;/i&gt;&lt;br&gt;&lt;/div&gt;&lt;div&gt;&lt;br&gt;&lt;/div&gt;" style="text;html=1;align=center;verticalAlign=middle;whiteSpace=wrap;rounded=0;" vertex="1" parent="UOO4iFjohePMqXIz4VdY-1">
          <mxGeometry x="280" y="60" width="680" height="30" as="geometry" />
        </mxCell>
        <mxCell id="2xTcTseRFaJtYKzfTaBq-1" value="&lt;font color=&quot;#0ca789&quot;&gt;&lt;b&gt;Load Balancer&lt;/b&gt;&lt;/font&gt;" style="shape=offPageConnector;whiteSpace=wrap;html=1;fillColor=#eeeeee;strokeColor=#F04747;rounded=1;verticalAlign=middle;horizontal=1;size=0.2;" vertex="1" parent="UOO4iFjohePMqXIz4VdY-1">
          <mxGeometry x="599" y="486.44" width="80" height="50" as="geometry" />
        </mxCell>
        <mxCell id="2xTcTseRFaJtYKzfTaBq-7" value="&lt;div&gt;&lt;font color=&quot;#0ca789&quot;&gt;&lt;span style=&quot;font-size: 10px;&quot;&gt;&lt;b&gt;Message Broker&lt;/b&gt;&lt;/span&gt;&lt;/font&gt;&lt;/div&gt;" style="rounded=1;whiteSpace=wrap;html=1;fillColor=#f5f5f5;strokeColor=#F04747;fontColor=#333333;" vertex="1" parent="UOO4iFjohePMqXIz4VdY-1">
          <mxGeometry x="585" y="710" width="110" height="50" as="geometry" />
        </mxCell>
        <mxCell id="2xTcTseRFaJtYKzfTaBq-14" value="&lt;font style=&quot;font-size: 8px;&quot;&gt;Subscriber&lt;br&gt;Topic: New Message&lt;/font&gt;" style="edgeLabel;html=1;align=center;verticalAlign=middle;resizable=0;points=[];" vertex="1" connectable="0" parent="UOO4iFjohePMqXIz4VdY-1">
          <mxGeometry x="785" y="779.9971428571426" as="geometry" />
        </mxCell>
        <mxCell id="0pScBWrZALg7YME11bCd-0" style="edgeStyle=orthogonalEdgeStyle;rounded=0;orthogonalLoop=1;jettySize=auto;html=1;entryX=1;entryY=0.5;entryDx=0;entryDy=0;exitX=0;exitY=0.5;exitDx=0;exitDy=0;" edge="1" parent="UOO4iFjohePMqXIz4VdY-1" target="0pScBWrZALg7YME11bCd-1" source="UOO4iFjohePMqXIz4VdY-13">
          <mxGeometry relative="1" as="geometry">
            <mxPoint x="584" y="498" as="sourcePoint" />
          </mxGeometry>
        </mxCell>
        <mxCell id="0pScBWrZALg7YME11bCd-1" value="File/Object Storage&lt;br&gt;(S3, GS, Blob)" style="shape=dataStorage;whiteSpace=wrap;html=1;fixedSize=1;rounded=1;strokeColor=#F04747;align=center;verticalAlign=middle;fontFamily=Helvetica;fontSize=12;fontColor=#333333;fillColor=#f5f5f5;" vertex="1" parent="UOO4iFjohePMqXIz4VdY-1">
          <mxGeometry x="390" y="595.63" width="150" height="59.58" as="geometry" />
        </mxCell>
      </root>
    </mxGraphModel>
  </diagram>
</mxfile>
